<svg width="215" height="85" viewBox="0 0 215 85" fill="none" xmlns="http://www.w3.org/2000/svg">
<path d="M50.6439 6.17033C65.8161 2.38333 81.4431 0.785458 97.0247 0.0122921C103.092 0.0577724 109.162 -0.0968607 115.226 0.115381C117.964 0.394327 120.72 0.200277 123.458 0.442839C124.953 0.649017 126.466 0.585344 127.969 0.682369C130.253 0.900675 132.53 1.14324 134.813 1.34941C140.049 2.10742 145.34 2.49249 150.537 3.51731C156.483 4.53304 162.401 5.75797 168.232 7.30734C174.441 9.08107 180.599 11.064 186.527 13.6352C191.578 15.9061 196.666 18.2196 201.181 21.4669C204.746 24.1866 208.27 27.0973 210.826 30.8267C213.254 34.2741 214.782 38.4947 214.425 42.7547C214.049 48.085 211.505 53.0727 208.076 57.0931C204.837 60.674 201.075 63.803 196.887 66.2165C191.633 69.3759 185.981 71.8651 180.132 73.6965C173.271 76.0342 166.209 77.72 159.166 79.3937C148.972 81.5919 138.648 83.2534 128.248 84.0478C123.509 84.536 118.743 84.5602 113.998 84.9271C106.648 84.9028 99.2866 85.2273 91.9461 84.6754C90.0965 84.6633 88.2531 84.5178 86.4126 84.3571C83.6565 84.3783 80.9459 83.8052 78.2019 83.6536C62.5385 82.0133 46.8781 79.1026 32.1576 73.3569C26.7667 71.2891 21.5819 68.724 16.5215 65.9588C14.1717 64.4215 11.9977 62.6296 9.83891 60.8407C5.21811 56.7778 0.921735 51.7022 0 45.4077V41.1538C0.22437 39.9289 0.394163 38.6857 0.815614 37.5093C2.78643 32.0638 6.46427 27.3429 10.9486 23.7288C17.6797 18.074 25.9208 14.7085 33.9162 11.2732C39.4011 9.29937 44.9982 7.6348 50.6439 6.17033ZM97.6523 4.26015C92.9678 4.2268 88.3167 4.81501 83.6565 5.18189C73.0657 6.16426 62.5112 7.66208 52.1144 9.95126C46.9205 10.8305 41.9541 12.6407 36.9421 14.2082C33.3826 15.5605 29.7654 16.7915 26.3634 18.5137C19.7536 21.664 13.7078 26.0937 8.97782 31.703C7.97118 33.0431 6.81902 34.2923 6.06708 35.8053C4.07807 39.7864 3.94769 44.6224 5.52131 48.7642C6.66742 51.3717 8.62913 53.5153 10.5393 55.5862C13.3318 58.6122 16.6973 61.0196 20.1842 63.1784C26.988 66.9866 34.3376 69.6821 41.7661 71.9864C58.2057 76.5041 75.1729 79.0419 92.1886 79.8363C95.0994 80.2457 98.0434 79.9364 100.966 80.1183C105.311 80.1274 109.656 80.1911 113.998 80.0577C116.12 80.0243 118.252 80.1517 120.362 79.8818C121.681 79.7332 123.012 79.7727 124.337 79.7423C129.783 79.2663 135.255 78.9722 140.652 78.0353C146.492 77.1439 152.329 76.2464 158.114 75.0397C160.497 74.5667 162.914 74.2059 165.239 73.4751C174.293 71.377 183.204 68.445 191.427 64.0728C195.174 61.8655 198.861 59.5157 202.148 56.6535C204.752 54.2309 207.117 51.4687 208.573 48.1911C209.44 46.196 210.219 44.0676 210.116 41.8572C210.252 37.3789 208.091 33.0886 205.059 29.8989C202.597 27.0761 199.474 24.9507 196.357 22.9162C188.113 17.7405 178.838 14.4963 169.529 11.819C159.242 8.74755 148.624 6.95865 137.999 5.53967C133.937 5.19402 129.895 4.58458 125.814 4.49665C123.713 4.18435 121.575 4.3784 119.471 4.07217C114.016 3.89328 108.559 4.0085 103.101 3.97514C101.279 3.94179 99.4685 4.20255 97.6523 4.26015Z" fill="#525252"/>
<path d="M87.6505 7.79553C90.6583 7.45291 93.6934 7.73186 96.7011 7.3953C103.575 7.21944 110.457 7.24067 117.331 7.3953C119.66 7.71063 122.018 7.48626 124.347 7.76521C126.448 8.00171 128.574 7.75914 130.663 8.11389C135.247 8.26246 139.786 8.99924 144.349 9.43282C155.631 10.9519 166.844 13.1925 177.683 16.7097C182.28 18.2499 186.807 19.9934 191.258 21.9187C195.281 23.8561 199.186 26.1362 202.561 29.0834C205.563 31.6242 208.031 35.0201 208.804 38.9374C209.256 41.9634 208.713 45.0955 207.334 47.8243C204.899 52.8756 200.59 56.7384 196.015 59.8372C190.882 63.5878 184.878 65.8739 178.914 67.9387C172.086 70.1672 165.094 71.9379 157.996 73.0568C155.528 73.3357 153.091 73.8117 150.635 74.1665C141.178 75.3065 131.679 75.9948 122.191 76.7407C119.262 76.7558 116.33 76.7043 113.411 76.9378C109.463 77.1045 105.512 77.0348 101.561 77.0499C99.9423 77.059 98.3172 77.0499 96.7042 76.9135C94.1936 76.6376 91.6589 76.868 89.1544 76.5466C77.7904 76.0888 66.4537 74.8032 55.2837 72.6141C46.7698 71.1254 38.4651 68.6482 30.3089 65.8193C22.8229 62.9177 15.446 59.1064 9.9186 53.1515C6.89871 50.1438 5.14317 45.811 5.48579 41.5389C5.88298 38.0248 7.97507 35.0049 10.0914 32.2852C11.1375 31.0936 12.2229 29.9354 13.3387 28.8105C17.7139 24.981 22.7259 21.8884 28.0258 19.5082C28.9354 19.108 29.845 18.7017 30.7547 18.2954C42.2157 13.2774 54.6045 10.8094 66.9661 9.28728C73.8457 8.59295 80.7375 8.03506 87.6505 7.79553ZM56.6633 23.6227C53.7829 23.6924 51.0146 24.6293 48.3161 25.5692C45.5418 26.6638 43.0313 28.3223 40.6269 30.0657C37.8405 32.2912 35.5634 35.1838 34.2172 38.4978C33.7473 39.6772 33.3228 40.9052 33.3228 42.1878C33.2652 43.8887 33.2015 45.6412 33.7351 47.2815C34.5962 50.5046 37.1856 53.3122 40.4511 54.1521C44.8354 55.5226 49.6381 54.5341 53.6494 52.4936C54.9714 51.6082 56.6815 50.9685 57.3334 49.4009C57.1272 49.0947 56.9362 48.7794 56.7148 48.4883C54.7713 49.6617 52.8763 50.9564 50.6902 51.6477C48.1281 52.718 45.0294 52.9514 42.5644 51.4991C40.5572 50.453 39.5657 48.2003 39.1655 46.0748C38.6137 41.7208 40.4086 37.479 42.7069 33.88C43.9834 31.9031 45.7783 30.3295 47.5824 28.8469C50.863 26.2636 55.214 25.0568 59.3436 25.7906C59.4406 25.924 59.6286 26.1969 59.7256 26.3333C59.0101 27.343 58.8888 28.7225 59.8014 29.6625C61.5327 31.0966 64.6284 30.2962 65.2954 28.0767C65.914 26.7578 64.9104 25.4116 63.8492 24.699C61.7419 23.3013 59.0798 23.271 56.6633 23.6227ZM137.191 24.4565C134.808 25.1326 133.658 28.6316 135.599 30.375C136.599 30.4053 137.752 30.4751 138.51 29.6837C139.844 28.6771 140.244 26.8215 139.777 25.2691C139.098 24.6354 138.143 23.9653 137.191 24.4565ZM96.6374 41.1872C96.974 39.6469 97.4955 38.1461 97.7532 36.5815C98.0928 35.3111 98.0019 33.7011 96.8952 32.8249C95.9704 32.6672 94.9911 32.7491 94.1573 33.1948C91.8954 34.4015 90.1823 36.3754 88.6632 38.3917C88.3964 38.9132 88.0417 39.4771 88.2266 40.0866C88.6238 40.0532 89.0422 39.9622 89.2939 39.6166C90.5401 38.3007 91.5891 36.6877 93.2719 35.8811C93.284 36.0782 93.3083 36.4724 93.3204 36.6695C91.9681 42.2302 90.0004 47.609 88.3115 53.0697C88.4995 53.3638 88.6663 53.6731 88.8967 53.9399C90.0731 54.0915 91.2647 54.0642 92.4442 53.9975C93.2689 53.1182 93.4478 51.8933 93.8753 50.8108C95.3125 46.6539 97.5046 42.8245 99.6088 38.9829C100.285 37.8459 101.195 36.8332 102.395 36.2389C102.623 36.8847 102.786 37.5518 102.883 38.2279C103.329 38.5615 103.805 38.8465 104.293 39.1163C105.494 39.1345 106.534 38.4584 107.24 37.5306C107.334 37.1758 107.441 36.8271 107.556 36.4815C107.692 35.111 107.074 33.786 106.116 32.834C105.576 32.743 105.042 32.6429 104.512 32.5247C100.509 33.8345 98.96 38.0915 96.6374 41.1872ZM123.368 33.6314C120.73 35.6265 119.411 38.7494 117.607 41.4176C118.056 38.7161 119.838 35.7477 118.25 33.1068C115.433 32.2397 112.886 34.3439 111.212 36.3845C110.394 37.5639 108.981 38.5311 109.051 40.1139C109.305 40.0775 109.818 40.0047 110.075 39.9713C111.428 38.616 112.362 36.7604 114.214 35.9842C114.226 36.4027 114.357 36.8362 114.238 37.2516C112.768 42.0362 111.306 46.8267 109.757 51.587C109.611 52.3086 109.078 53.3941 109.86 53.9005C110.982 54.4007 112.213 54.1855 113.374 53.9611C113.593 53.673 113.884 53.4275 113.993 53.0697C114.784 50.9715 115.512 48.8491 116.491 46.8298C117.24 44.9317 118.359 43.2186 119.229 41.3782C120.387 39.5772 121.442 37.6397 123.104 36.242C123.998 36.909 123.65 38.2855 124.544 38.9374C125.654 39.4741 126.982 38.9526 127.776 38.0945C128.883 36.6361 128.577 34.4227 127.373 33.1281C126.148 31.9941 124.532 32.8976 123.368 33.6314ZM149.043 34.1468C144.974 36.3845 142.103 40.6354 141.53 45.241C141.072 47.4028 141.351 49.7223 142.3 51.7174C143.6 54.3067 146.739 55.4347 149.498 55.1648C151.699 54.7646 153.903 54.0642 155.704 52.6876C157.26 51.6143 158.803 50.3409 159.525 48.5368C159.176 48.4216 158.788 48.0396 158.472 48.4519C156.814 49.6829 155.149 50.9806 153.148 51.6143C151.274 52.3602 148.979 51.966 147.539 50.5319C146.411 49.2857 146.511 47.3604 147.048 45.8747C151.384 44.8681 156.195 44.5558 159.782 41.6359C161.356 40.2624 162.629 38.0581 161.871 35.9388C161.568 35.3202 161.292 34.6714 160.831 34.1499C159.937 33.2766 158.712 32.8673 157.517 32.6066C154.625 32.1457 151.553 32.5914 149.043 34.1468ZM72.7603 33.0887C69.2249 34.1044 66.196 36.4936 64.0311 39.4226C61.8541 42.6001 60.1925 46.4417 60.6534 50.3681C60.8475 52.1146 61.8844 53.7488 63.452 54.5705C64.4859 54.801 65.538 54.8161 66.5659 54.5372C69.1764 53.673 70.9896 51.5355 72.8664 49.6496C72.8937 50.7502 72.6754 51.866 72.8755 52.9575C73.1908 53.9217 74.1126 54.8222 75.2011 54.6615C77.845 54.5069 79.8431 52.4724 81.6229 50.7168C82.4142 49.7557 83.6179 48.6247 83.1177 47.2543C81.0407 48.1093 80.4707 50.8866 78.1239 51.2626C78.1573 49.974 78.6848 48.7854 79.0517 47.5696C80.5981 42.6577 82.1201 37.7367 83.6665 32.8249C82.299 32.6854 80.9225 32.7097 79.552 32.6945C79.2276 33.1766 78.9213 33.6678 78.6212 34.159C77.1749 32.455 74.7281 32.5399 72.7603 33.0887ZM178.341 34.0589C175.864 36.057 174.636 39.0921 172.89 41.6723C173.326 39.5287 174.087 37.4487 174.245 35.2475C174.169 34.4622 173.899 33.7072 173.432 33.0674C172.556 33.0978 171.659 32.9886 170.807 33.213C167.951 34.3773 166.137 36.9969 164.333 39.3589C164.37 39.556 164.443 39.9532 164.479 40.1502C164.855 40.0684 165.322 40.1533 165.604 39.8319C166.986 38.6342 167.741 36.715 169.552 36.0388C169.57 36.5694 169.558 37.1061 169.436 37.6276C168.22 43.0974 166.025 48.2851 164.706 53.7276C165.828 54.516 167.265 54.2067 168.548 54.3098C169.063 53.8489 169.448 53.2668 169.591 52.5815C170.689 48.84 172.599 45.4169 174.421 41.9937C175.603 39.9441 176.555 37.5821 178.657 36.2814C178.96 37.0273 179.105 37.8338 179.454 38.5615C179.906 38.9617 180.524 39.1224 181.061 39.3953C182.477 38.9435 183.951 37.7822 183.75 36.1267C183.984 34.6987 183.038 33.5253 181.974 32.7187C180.661 32.7673 179.351 33.2008 178.341 34.0589ZM132.888 34.4318C131.051 39.7439 129.21 45.053 127.382 50.3651C126.791 51.8629 126.964 53.6245 128.001 54.8889C129.25 54.9313 130.542 54.9647 131.7 54.4189C134.001 53.3183 136.078 51.678 137.573 49.6041C138 49.0826 137.94 48.4095 137.876 47.7849C135.854 48.8127 134.732 51.1474 132.455 51.7174C132.437 51.0746 132.361 50.4136 132.555 49.789C133.27 47.4847 134.016 45.1864 134.835 42.9154C135.869 39.7925 136.927 36.6725 137.718 33.4768C136.566 32.8704 135.235 33.0947 133.992 33.1129C133.237 33.028 133.125 33.9164 132.888 34.4318Z" fill="#525252"/>
<path d="M153.258 34.3682C154.197 33.6951 155.48 33.9589 156.308 34.6805C157.114 35.7902 157.111 37.2607 156.735 38.5342C156.238 40.6354 154.34 41.9634 152.49 42.8184C150.92 43.4127 149.246 43.725 147.566 43.722C148.755 40.2958 149.828 36.2298 153.258 34.3682Z" fill="#525252"/>
<path d="M73.7869 34.914C74.8572 34.4228 76.1003 34.3046 77.1554 34.9049C77.2767 35.102 77.5193 35.4901 77.6406 35.6872C77.9589 37.37 76.9826 38.8375 76.4217 40.3444C74.8117 44.0889 73.0743 48.2004 69.4329 50.3986C68.1261 51.196 66.319 50.6836 65.7793 49.2191C66.1886 43.6129 69.1327 38.1249 73.7869 34.914Z" fill="#525252"/>
</svg>
