<svg width="234" height="40" viewBox="0 0 234 40" fill="none" xmlns="http://www.w3.org/2000/svg">
<path d="M177.571 0.00512384V30.6679C177.571 32.6609 178.545 33.6844 180.531 33.7861C180.556 33.7882 190.536 33.7882 190.536 33.7882V37.2281C190.536 37.6122 190.33 37.8821 189.907 37.8821H173.71C168.707 37.8821 167.967 35.1002 167.967 32.5737V2.08945C167.967 0.650765 168.509 -0.0301696 170.193 0.00719872L177.571 0.00512384Z" fill="#525252"/>
<path d="M158.901 0.00512384L158.903 35.885C158.903 37.4814 158.233 37.8821 156.889 37.8821H149.289V1.98565C149.289 0.802316 149.737 0.00719872 151.441 0.00719872L158.901 0.00512384Z" fill="#525252"/>
<path d="M0 5.22541C0 2.33767 0.00616697 7.89801e-05 4.70331 7.89801e-05H25.3502V3.64556C25.3502 3.90507 25.2289 4.13966 24.8692 4.13966L12.4963 4.1355C10.8332 4.1355 9.99659 4.941 9.99659 6.63503V16.2532H24.5547L24.5567 20.0731C24.5567 20.4115 24.347 20.59 24.0181 20.59H9.99659V35.8508C9.96576 37.3227 9.23806 37.9082 7.63877 37.8791H0V5.22541Z" fill="#525252"/>
<path d="M40.2562 0.00172376V28.8729C40.2562 31.3517 40.6036 33.0893 42.3262 34.0941C44.6347 35.4435 48.5446 35.4643 50.8983 34.1315C52.5078 33.2242 53.1225 31.7669 53.1225 28.8812V1.92619C53.1225 0.713798 53.5809 0.00172376 55.2583 0.00172376H62.7305L62.7326 28.0197C62.7326 34.528 58.6748 37.1977 55.0877 38.188C50.3145 39.5021 43.0642 39.5229 38.5603 38.1569C33.1786 36.521 30.6646 33.3031 30.6584 28.0217L30.6543 1.94695C30.6543 0.688886 31.1024 0.00172376 32.5352 0.00172376H40.2562Z" fill="#525252"/>
<path d="M221.987 0.00696289C220.092 0.00696289 219.011 0.899651 218.583 2.60821L212.463 28.7266L212.297 28.7224L205.976 0.00696289H197.334C195.667 0.00696289 195.143 0.872664 195.143 2.20962V37.8818H198.793C199.381 37.8818 199.624 37.587 199.624 36.9829V7.07373H200.202L208.015 37.8818H213.132C215.06 37.8818 215.777 37.0826 216.252 35.1581L223.266 7.07373H223.833L223.831 37.8818L230.658 37.8715C232.333 37.8715 233.098 37.2217 233.098 35.5588V0.00488801L221.987 0.00696289Z" fill="#525252"/>
<path d="M108.397 20.5888H98.7891V37.8821H106.387C107.725 37.8821 108.399 37.4856 108.399 35.885C108.399 35.885 108.397 28.4881 108.397 20.5888Z" fill="#525252"/>
<path d="M107.836 13.1992C108.173 12.9231 108.37 12.7155 108.395 12.1217V0.00816769H100.935C99.2557 0.00816769 98.7891 0.836501 98.7891 2.01568V20.3552L107.836 13.1992Z" fill="#525252"/>
<path d="M74.8911 34.8862C79.064 34.2904 80.4516 31.7867 80.4516 28.0956V2.06232C80.4516 0.505306 81.2862 0.000829774 82.3633 0.000829774H90.0596V24.6162C90.0596 30.6698 88.7975 33.7278 85.2474 36.3083C83.3994 37.6473 80.1679 39.1753 73.1664 39.1753C69.1579 39.1753 67.3756 38.9469 67.1351 38.8909C66.7959 38.812 66.6582 38.6023 66.6582 38.3054V35.1271C68.3048 35.1748 72.0748 35.2911 74.8911 34.8862Z" fill="#525252"/>
<path d="M122.955 0.00225149C118.262 0.00225149 118.26 2.33985 118.26 5.22759V14.9869C118.26 15.1883 118.174 15.2693 118.084 15.3586L111.512 20.588H118.26V37.8792H125.895C127.494 37.9103 128.222 37.3228 128.249 35.853V20.5922H142.27C142.599 20.5922 142.811 20.4116 142.811 20.0753V16.2533H128.249V6.63513C128.249 4.94318 129.087 4.13561 130.748 4.13561L143.125 4.13976C143.481 4.13976 143.606 3.90724 143.606 3.64774V0.00225149H122.955Z" fill="#525252"/>
</svg>
