<svg width="200" height="77" viewBox="0 0 200 77" fill="none" xmlns="http://www.w3.org/2000/svg">
<path d="M42.3885 0.222767C42.2762 0.570178 42.1904 0.879135 42.1045 0.9998C41.5485 1.99165 40.9872 3.13333 40.3942 4.05622C40.1829 4.60386 39.7867 5.08121 39.4393 5.57581C39.3574 5.99217 38.0473 8.25299 37.7752 9.23158C37.3962 10.5204 36.4109 11.4433 35.7677 12.5691C35.1959 13.427 34.4549 14.0383 33.5819 14.5329C33.0708 15.0607 32.462 15.5911 31.9178 16.136C31.7725 16.3668 32.0671 16.5007 32.1463 16.6306C32.8886 17.0152 33.3482 17.7922 33.994 18.3385C34.5355 18.7615 34.9977 19.3105 35.4072 19.7865C35.8826 20.4495 36.7411 20.9958 37.136 21.7888C37.7607 22.4491 38.0222 23.2924 38.5148 23.9528C39.0101 24.5309 39.1276 25.2111 39.5555 25.7694C40.2423 25.8874 40.6557 25.1422 40.9515 24.7616C41.7466 24.1517 42.584 23.494 43.2919 22.717C46.4655 19.7534 49.2483 17.0152 52.426 14.2372C52.8882 13.789 53.2646 13.3952 53.8418 13.1605C54.0584 13.2931 54.1389 13.5411 54.2221 13.7572C54.1033 14.4679 54.0029 15.176 53.8418 15.839C53.1642 17.889 52.3626 19.7083 51.652 21.692C51.4737 22.2184 51.1594 22.6639 50.9613 23.1585C50.6971 23.4091 50.5492 23.8547 50.3537 24.1663C50.0104 24.515 49.9258 25.0945 49.6617 25.5055C49.1994 25.7044 49.1796 26.1897 48.9208 26.5769C48.8204 26.9734 48.1138 27.7372 47.9976 28.005C47.357 28.6614 45.7761 29.9038 45.7761 29.9038C44.7222 30.7631 43.3236 31.0906 42.0728 31.69C41.6581 31.9326 41.1523 32.0665 40.6557 32.2005C39.6018 32.2005 38.6601 32.3012 37.5467 32.3914C37.2364 32.467 36.5668 32.4272 36.4849 32.7402C36.1217 33.8938 35.9196 36.2143 35.9196 36.2143C35.9381 36.7089 35.8179 37.0563 35.8536 37.5867C35.6713 38.5281 35.6198 39.5505 35.5551 40.5264C35.5551 40.7611 35.2408 44.9115 34.9634 46.6764C34.8644 46.9721 34.9502 47.3526 34.7996 47.6324C34.7362 48.8563 34.6676 50.0961 34.62 51.2046C34.4708 52.1806 34.2397 53.1883 34.1723 54.1125C33.7615 54.6217 33.4987 56.4078 33.4829 56.7367C33.3151 57.0032 33.1527 57.348 32.8067 57.4169C32.6482 57.462 32.5782 57.4912 32.3972 57.5137C32.1754 57.4328 32.1542 57.275 32.0314 57.0841C31.6867 55.6984 31.2244 54.3565 30.8005 53.0716C30.6671 52.6261 30.5707 52.0785 30.4043 51.5812C29.81 50.4581 29.7968 49.0539 29.662 47.8645C29.4653 45.8993 29.0849 43.6531 29.1866 41.6522C29.2354 40.4283 29.1337 39.219 29.1707 37.999C29.2024 36.6956 29.5498 35.355 29.662 34.0184C29.6303 32.532 30.2194 30.9315 29.9341 29.5365C29.8588 28.9703 29.7175 29.0287 29.662 28.68C29.4653 28.2689 29.073 28.017 28.8062 27.5873C26.8291 26.1831 25.2152 24.3678 23.4745 22.6772C23.2249 22.5472 23.0307 22.4491 22.8154 22.3165C21.9596 22.7806 21.187 23.4569 20.3312 23.9024C18.4536 24.9914 16.6694 26.2351 14.9968 27.6205C13.9759 28.1999 13.0883 29.1905 11.8852 29.4039C11.4889 29.6532 11.0373 29.8495 10.6463 30.0802C8.6626 29.8866 4.80874 30.0802 4.80874 30.0802C4.4812 30.0497 4.0731 30.1704 3.65179 30.0431C3.4042 29.9281 3.18365 29.7618 3.00464 29.5551C3.12218 29.2594 3.21859 28.9279 3.54613 28.7781C4.79817 28.5142 6.24304 28.0329 7.40924 27.3248C8.33374 27.0251 9.14202 26.4496 9.91068 25.7694C10.1286 25.4737 10.4205 25.2761 10.7361 25.0931C11.0491 24.3811 11.8548 23.9528 12.2985 23.311C12.9232 22.2701 13.8438 21.6071 14.5041 20.602C15.6268 19.5054 16.5605 18.1847 17.8456 17.3228C18.7304 16.8454 19.7355 16.7964 20.7247 16.4675C22.336 15.8921 24.0014 15.4916 25.5797 14.7676C26.3536 14.0741 26.948 13.2109 27.6242 12.471C29.4164 10.535 31.655 9.37744 33.7272 7.44546C34.6834 6.45362 35.6383 5.14619 36.543 4.12119C37.2813 3.01797 38.5927 1.37904 39.6546 0.0331499C39.2056 0.0198899 38.7552 0 38.3009 0C17.1482 0 0 17.2194 0 38.4539C0 50.1279 5.18779 60.5807 13.3657 67.6337C13.5836 67.3407 13.7725 67.0834 13.8464 67.0025C12.7449 63.5815 10.2897 60.8871 10.1114 57.336C9.97671 54.6708 9.58314 52.2257 9.80898 49.6333C10.1127 47.2373 10.2897 44.6608 11.2459 42.461C13.1213 39.1089 15.4934 35.8655 17.8125 32.8767L17.9605 32.76C17.9605 32.7309 18.8335 32.9099 19.2125 33.24C19.3934 33.423 19.227 33.7346 19.3934 33.8845C19.3934 33.8845 19.2614 34.6947 19.1768 35.0593C19.1108 35.5208 18.8163 36.0962 18.7318 36.6638C18.3725 36.9754 17.765 38.3478 17.6316 38.7774L17.518 39.1566C16.8762 41.2066 15.7549 43.1545 15.2464 45.2191C14.9981 46.4098 15.0971 47.6324 15.1143 48.8563C15.0971 49.7182 15.0971 50.6941 15.1447 51.4181C15.3269 52.6261 15.4934 53.7837 15.8883 54.9877C16.1986 55.6374 16.3122 56.0989 16.612 56.8574C16.9501 58.1873 17.4005 59.3171 17.8469 60.5715C17.9446 60.7903 18.0516 61.8232 18.7318 62.0301C19.4251 62.046 20.001 62.1428 20.6917 62.0606C21.2174 62.2595 21.8777 62.3085 22.439 62.2409C25.3023 62.5591 28.1815 62.4902 31.0633 62.4398C32.4448 62.2077 33.7285 61.9757 35.1443 61.7993C36.2009 61.8789 37.3632 61.7622 38.5161 61.7622C39.1763 61.6622 39.8418 61.6019 40.5091 61.5819C41.3517 61.6959 42.4202 61.3167 43.2087 61.5819C44.5571 61.8272 45.9571 61.7463 47.2593 61.8471C47.4429 61.8471 47.4072 62.0606 47.4072 62.1746C46.9806 62.3616 47.4072 62.8363 47.1087 63.0988C45.1673 64.0588 43.173 64.804 41.3134 65.6951L41.1655 65.8436C39.8012 66.7519 38.0737 66.7678 36.8098 67.7106C36.4109 67.7955 36.0662 67.9254 35.6872 67.8286C34.9832 67.9427 34.34 68.1893 33.6982 68.4558C30.6526 69.0645 27.5898 69.7142 24.5482 70.2419C24.4597 70.3056 23.7703 70.7365 23.6554 71.0508C23.4745 71.133 23.5418 71.4115 23.3596 71.5454C23.0518 72.2548 23.0413 72.996 22.9964 73.7094C27.824 75.8255 33.0358 76.915 38.3035 76.9091C47.7304 76.9215 56.8281 73.4293 63.8423 67.106C63.7683 65.6368 63.1502 63.6292 62.993 62.6241C61.6142 60.4057 60.7399 58.1422 59.4403 55.8973C59.126 54.7915 58.4167 53.8619 58.1064 52.7229C57.7762 52.3437 57.693 51.6488 57.3139 51.2378C56.1808 51.1516 55.0449 51.5335 53.925 51.5335C53.5459 51.8159 52.9212 51.93 52.4273 52.1315C51.9307 52.0307 51.3232 52.2601 50.8451 52.0957C49.8426 52.2256 47.2725 52.4922 46.9648 52.5731C45.9082 52.7229 44.775 52.8356 43.7026 53.0544C43.2324 53.0942 42.996 53.2069 42.4321 53.2175C41.7123 53.2493 41.3134 53.1035 40.727 53.0716C39.9478 53.3501 39.195 53.1684 38.4356 53.3501C38.2401 53.1684 37.8941 52.9868 37.9073 52.6871C37.9429 52.5412 37.6788 52.2442 37.9073 52.0957C38.6522 51.9605 39.2452 51.4513 39.9835 51.3134C40.1816 51.1198 41.1021 51.1516 41.0374 50.9885C42.65 50.3083 44.4594 50.1107 45.9082 49.1851C46.4008 49.1188 46.7971 48.8231 47.2923 48.7582C49.3791 48.001 51.2928 47.0384 53.431 46.26C56.326 45.5877 58.6994 44.1464 61.4293 43.2023C62.0065 43.1877 62.437 42.9238 62.8438 42.5432C63.4408 41.8497 63.8343 40.9746 64.2794 40.1644C65.2501 39.0068 65.5473 37.5535 66.7967 36.5643C67.1731 36.0313 67.3369 35.42 67.7661 34.9254C67.7661 34.1285 67.4689 33.3899 67.1084 32.6937C66.403 31.6947 65.7705 30.6458 65.2158 29.5551C63.9809 27.8512 63.4408 25.7707 63.1106 23.8056C62.6483 23.0484 61.8083 22.7806 61.2153 22.1216H61.1348C60.6554 21.806 60.3767 21.5381 59.9818 21.1616C59.1775 20.6497 58.8301 19.874 58.2213 19.1925C57.6098 18.7482 57.4632 17.9699 57.3311 17.3546C58.3349 17.161 59.3228 17.3427 60.2776 17.2088C60.6712 17.3758 61.1652 17.112 61.5416 17.3241C62.058 17.9208 62.4661 18.5971 62.7302 19.3105C65.4786 23.2792 68.7897 26.4669 71.5526 30.2314C72.0809 30.5324 71.8326 31.3094 72.0624 31.7523C72.275 32.7441 72.3754 33.7996 72.5062 34.7596C72.9526 36.7606 72.0822 38.6315 72.2117 40.6404C72.2117 40.6404 71.7494 45.2191 71.4721 47.2717C71.0441 48.9571 71.1247 50.7724 70.6175 52.4604C70.3838 53.4999 70.0047 54.639 69.7749 55.7528C69.874 56.2434 69.3787 56.555 69.5108 57.1531C69.6508 57.3161 70.57 57.7259 71.2753 58.0189C74.7713 52.0975 76.6114 45.3388 76.6017 38.4552C76.6017 18.605 61.6195 2.26878 42.3872 0.222767M23.8509 7.09805C24.329 6.81959 24.7595 7.32878 25.2165 7.40966C25.6484 8.00636 25.8267 8.7993 26.0248 9.47821C26.487 10.1545 25.9072 10.848 25.9231 11.6104C25.6986 12.1196 25.3657 12.6182 25.1042 13.0955C24.609 13.3461 24.1322 13.8726 23.555 13.4933C23.3741 13.5411 22.9501 13.3621 22.8815 13.3621C22.3373 12.9775 21.29 13.1605 21.2491 12.2363C21.1394 10.9461 20.4144 9.90519 20.3008 8.60041C21.0074 7.29563 22.7666 7.72525 23.8509 7.09805ZM25.6127 54.1775C25.0395 55.0063 24.8256 55.9106 24.362 56.8587C24.3977 57.1013 24.115 57.0841 23.9512 57.1862C23.8734 57.2963 23.7698 57.3855 23.6496 57.446C23.5294 57.5066 23.3963 57.5367 23.2618 57.5336C22.7811 57.283 22.3532 57.6967 21.9279 57.3002C21.4023 56.7035 21.0219 55.9795 20.8925 55.2184C20.5108 54.0277 20.9889 52.9059 21.1038 51.7178C21.3151 51.0349 21.5819 50.295 21.9926 49.6506C22.1392 49.3191 22.2185 48.9531 22.6002 48.7887C22.7718 48.6388 22.9792 48.6746 23.0954 48.5937C23.6369 48.5739 24.2312 48.2092 24.7278 48.7913C24.8084 49.1202 25.1029 49.2859 25.2522 49.6002C25.4503 50.661 25.9218 51.7509 25.9918 52.7229C25.8927 53.2016 25.6972 53.6511 25.6127 54.1775ZM58.0245 30.2645L58.1698 30.3839C58.8631 30.7299 59.5856 30.7631 60.2961 31.0601C61.1546 31.2418 61.8083 32.0506 62.2006 32.76C62.3366 33.4562 62.3683 34.2849 62.4515 34.9904C62.4476 36.0618 63.3364 38.0163 61.6274 38.5268C60.7227 38.5626 59.9659 38.0813 59.1775 37.7365C58.7469 37.6675 58.352 37.2724 58.0245 37.0404C56.7857 36.4132 57.0366 34.8936 56.5096 33.8367C56.4581 33.1114 56.293 32.3012 56.1794 31.5375C56.1134 31.2046 56.2785 30.9249 56.3947 30.596C56.8041 30.1027 57.4487 30.1187 58.0245 30.2645ZM99.7883 40.1392H103.604V44.1437C102.534 44.7139 101.117 45.0162 99.4911 45.0162C95.8763 45.0162 93.3524 42.2634 93.3524 38.3239C93.3524 34.6005 95.9331 31.8968 99.4911 31.8968C101.312 31.8968 103.064 32.5519 104.18 33.6471L104.362 33.8248L107.175 30.9699L106.974 30.7896C105.16 29.1653 102.703 28.375 99.4647 28.375C93.5215 28.375 89.3718 32.5519 89.3718 38.5361C89.3718 44.4235 93.5215 48.5381 99.4647 48.5381C102.339 48.5381 104.972 47.9056 107.294 46.6578L107.429 46.5862V36.6147H99.7896V40.1379L99.7883 40.1392ZM116.767 39.9801H125.318V36.4582H116.767V32.3728H125.791V28.8497H112.943V48.0633H126.265V44.5402H116.767V39.9801ZM140.445 28.3723C140.367 28.3723 140.289 28.3723 140.215 28.375C134.272 28.375 130.123 32.5519 130.123 38.5361C130.123 44.4235 134.272 48.5381 140.215 48.5381H140.221C146.303 48.4267 150.389 44.3652 150.389 38.43C150.389 32.414 146.392 28.3723 140.445 28.3723ZM140.242 45.0162C136.627 45.0162 134.103 42.2634 134.103 38.3239C134.103 34.6005 136.685 31.8968 140.242 31.8968C143.8 31.8968 146.407 34.6005 146.407 38.3239C146.407 42.2634 143.871 45.0162 140.242 45.0162ZM162.736 28.8497H155.141V48.0633H162.342C167.248 48.0633 172.462 44.6953 172.462 38.4565C172.462 31.8199 167.577 28.8497 162.736 28.8497ZM161.183 44.5402H158.966V32.3728H161.737C164.813 32.3728 168.48 33.427 168.48 38.4565C168.48 43.9461 163.377 44.5402 161.183 44.5402ZM177.135 48.062H180.958V28.8497H177.135V48.062ZM193.525 36.5351C191.677 35.9385 190.219 35.4664 190.219 34.0449C190.219 32.4617 191.664 31.8968 193.017 31.8968C194.32 31.8968 195.463 32.41 196.07 33.2679L196.251 33.5225L199.059 30.5483L198.874 30.3719C197.133 28.7211 194.914 28.375 193.359 28.375C189.814 28.375 186.237 30.2009 186.237 34.2823C186.237 38.2165 189.231 39.1924 191.636 39.9761C193.483 40.5768 195.077 41.0966 195.077 42.7077C195.077 44.206 193.528 45.0149 192.07 45.0149C190.654 45.0149 189.354 44.328 188.599 43.1757L188.43 42.9185L185.539 45.7296L185.692 45.9113C187.509 48.0819 190.12 48.5367 191.99 48.5367C196.284 48.5367 199.059 46.0929 199.059 42.3125C199.059 38.3239 195.989 37.3321 193.525 36.5351Z" fill="#525252"/>
</svg>
