<svg width="237" height="60" viewBox="0 0 237 60" fill="none" xmlns="http://www.w3.org/2000/svg">
<g clip-path="url(#clip0_2441_33)">
<path d="M36.7033 22.5286L42.4845 43.3195L48.0704 43.3311L53.9174 22.5286V43.1508L54.0907 43.3241H60.676L60.8493 43.1508V15.4812H50.1049L45.3104 33.8518L40.4581 15.4812H29.7715V43.3241H36.7033V22.5286Z" fill="#525252"/>
<path d="M131.901 43.3241V31.7132C131.901 31.0212 132.512 29.5251 132.996 28.9959C134.357 27.5079 137.623 27.5472 138.392 29.6129C138.478 29.8428 138.718 30.7185 138.718 30.9045V43.3241H145.419L145.366 28.8481C145.078 25.9159 143.879 23.6746 140.912 22.8185C137.555 21.8492 133.705 22.8624 131.671 25.7634V23.1062H125.201V43.1508L125.374 43.3241H131.902H131.901Z" fill="#525252"/>
<path d="M122.028 35.7026C123.608 27.6998 117.871 21.6518 109.809 22.5598C102.948 23.3327 99.4369 30.7937 101.544 36.9989C104.863 46.7716 120.01 45.919 122.027 35.7026H122.028ZM110.962 27.642C117.463 26.7513 117.114 40.3608 110.477 38.5805C106.539 37.5245 106.6 28.2393 110.962 27.642Z" fill="#525252"/>
<path d="M88.6933 37.6043C88.7684 38.8358 89.0215 40.5052 89.7516 41.5138C91.726 44.2415 96.5275 43.2907 99.4366 43.3242V38.3564C98.4222 38.3206 96.5679 38.7445 95.7916 37.9C95.6864 37.7856 95.393 37.2461 95.393 37.1433V27.3809H99.4366V23.1063H95.393V16.9832H88.6922V23.1063H85.3418V27.3809H88.6922C88.8435 30.7371 88.4889 34.2677 88.6922 37.6043H88.6933Z" fill="#525252"/>
<path d="M83.0328 43.3241V15.4812H76.332V43.1508L76.5053 43.3241H83.0328Z" fill="#525252"/>
<path d="M71.9407 23.1062H65.3555V43.3241H71.9407V23.1062Z" fill="#525252"/>
<path d="M71.9407 15.4812H65.3555V20.5646H71.9407V15.4812Z" fill="#525252"/>
<path d="M206.823 20.5632L205.264 28.4205H208.383L206.823 20.5632Z" fill="#525252"/>
<path d="M232.061 16.2898H231.855V16.7773H232.061C232.162 16.7773 232.236 16.7577 232.279 16.7184C232.323 16.6814 232.348 16.6191 232.348 16.5313C232.348 16.4435 232.323 16.3845 232.279 16.3452C232.236 16.3083 232.162 16.2898 232.061 16.2898Z" fill="#525252"/>
<path d="M232.16 15.4812C231.364 15.4812 230.717 16.1282 230.717 16.9242C230.717 17.7202 231.364 18.3672 232.16 18.3672C232.956 18.3672 233.603 17.7202 233.603 16.9242C233.603 16.1282 232.956 15.4812 232.16 15.4812ZM232.557 17.8299L232.326 17.3597C232.28 17.2662 232.233 17.2003 232.185 17.1668C232.138 17.1321 232.073 17.1137 231.995 17.1137H231.857V17.8299H231.368V15.9352H232.115C232.364 15.9352 232.547 15.978 232.662 16.0623C232.78 16.1455 232.837 16.2772 232.837 16.4597C232.837 16.5845 232.808 16.6873 232.747 16.7682C232.687 16.8468 232.596 16.908 232.473 16.945C232.541 16.9612 232.6 16.997 232.653 17.0501C232.706 17.1033 232.759 17.1841 232.813 17.295L233.079 17.8311H232.56L232.557 17.8299Z" fill="#525252"/>
<path d="M174.995 0H0V59.0363H236.688V0H174.995ZM174.417 58.4586H0.577654V0.577654H174.417V58.4586ZM200.294 26.2509L202.716 15.4164L210.985 15.4788L216.239 37.6619L206.924 29.9387L197.872 37.0843L200.295 26.2498L200.294 26.2509ZM188.221 43.9433C184.961 43.978 181.96 42.2797 181.465 38.7595H181.46V30.7139V20.3866C181.554 19.0349 182.022 17.9547 182.737 17.1159C182.783 17.0639 182.828 17.0119 182.874 16.9611C183.153 16.6584 183.466 16.3881 183.806 16.1512C184.033 15.9929 184.272 15.8497 184.52 15.7191C184.645 15.6544 184.771 15.5932 184.9 15.5343C184.965 15.5054 185.03 15.4765 185.095 15.4499C185.227 15.3956 185.36 15.3437 185.495 15.2963C185.63 15.2478 185.768 15.2039 185.907 15.1623C186.045 15.1207 186.186 15.0826 186.328 15.0479C186.399 15.0306 186.47 15.0132 186.542 14.9982C186.828 14.9347 187.12 14.8838 187.414 14.8457C187.929 14.7787 188.455 14.7487 188.98 14.7544C189.13 14.7556 189.279 14.7602 189.429 14.7672C189.802 14.7856 190.174 14.8215 190.539 14.8734C190.832 14.915 191.12 14.9682 191.403 15.0306C191.474 15.0467 191.544 15.0629 191.615 15.0791C191.755 15.1126 191.893 15.1496 192.03 15.1888C192.166 15.2281 192.301 15.2697 192.434 15.3136C192.547 15.3506 192.662 15.3933 192.778 15.4419C194.517 16.1593 196.482 18.0113 196.482 19.9302V27.0354H190.648L190.475 26.8621V20.7389C190.475 20.7008 190.433 20.6188 190.371 20.5194C190.321 20.4409 190.257 20.3519 190.193 20.2664C190.079 20.1174 189.959 19.9811 189.892 19.9349C189.806 19.8736 189.717 19.8228 189.627 19.7824C189.597 19.7685 189.567 19.7558 189.536 19.7442C189.446 19.7096 189.356 19.6853 189.266 19.6691C189.176 19.6541 189.087 19.6472 188.998 19.6495C188.851 19.653 188.708 19.6807 188.572 19.7304C188.517 19.75 188.464 19.7731 188.412 19.7997C188.283 19.8655 188.164 19.9522 188.058 20.0562C188.037 20.077 188.016 20.0989 187.995 20.1209C187.814 20.3219 187.678 20.5795 187.612 20.8811C187.658 21.8804 187.673 22.8948 187.667 23.9195C187.66 25.2851 187.62 26.668 187.576 28.0532C187.477 31.1691 187.36 34.2965 187.581 37.2645C187.604 37.5764 187.668 37.8606 187.771 38.1044C187.797 38.1656 187.825 38.2234 187.857 38.2788C188.088 38.6948 188.455 38.9547 188.945 38.9651C189.174 38.9697 189.429 38.92 189.71 38.8068C189.758 38.7872 189.816 38.7537 189.876 38.7098C189.937 38.6659 190.002 38.6127 190.064 38.5538C190.149 38.4752 190.231 38.3874 190.299 38.3008C190.316 38.2788 190.332 38.2569 190.348 38.2361C190.423 38.1287 190.472 38.027 190.472 37.9519V31.8288L190.646 31.6555H196.48C196.46 31.86 196.449 32.0714 196.443 32.2863C196.441 32.3937 196.439 32.5023 196.439 32.6121C196.439 32.8316 196.445 33.0545 196.453 33.2798C196.473 33.8425 196.511 34.419 196.533 34.9828C196.558 35.6586 196.561 36.3171 196.481 36.9121C196.426 37.3269 196.203 37.8317 195.924 38.2661C195.841 38.3967 195.752 38.5203 195.662 38.6335C195.572 38.7467 195.478 38.8496 195.387 38.9362L193.336 40.5825L189.235 43.8752C188.895 43.9156 188.554 43.9376 188.218 43.941L188.221 43.9433ZM191.978 43.7862L206.844 31.7872L221.207 43.7862H191.978ZM229.41 20.9111H225.366V43.7862H223.46L218.665 39.8582V21.0844L218.492 20.9111H214.506V15.3656H229.41V20.9111ZM232.16 18.7345C231.162 18.7345 230.35 17.9223 230.35 16.9241C230.35 15.9259 231.162 15.1138 232.16 15.1138C233.159 15.1138 233.971 15.9259 233.971 16.9241C233.971 17.9223 233.159 18.7345 232.16 18.7345Z" fill="#525252"/>
</g>
<rect x="1.5" y="1.5" width="233.688" height="56.0363" stroke="#525252" stroke-width="3"/>
<defs>
<clipPath id="clip0_2441_33">
<rect width="236.688" height="59.0363" fill="white"/>
</clipPath>
</defs>
</svg>
