<svg width="177" height="90" viewBox="0 0 177 90" fill="none" xmlns="http://www.w3.org/2000/svg">
<path d="M8.9181 89.9949C4.34096 89.5304 0.350686 85.3957 0 80.8315L0.00650624 9.1764C0.617442 3.82502 4.62138 0.308396 9.95259 0L107.658 0.0305793L138.959 40.6627C139.113 40.8566 139.103 41.027 139.082 41.2567C138.958 42.6328 137.993 44.4734 137.805 45.91C134.937 44.2281 131.498 42.4903 128.118 42.2639C122.956 41.9177 117.199 42.7239 112.102 42.2743C109.072 42.0069 109.637 37.096 109.974 35.001C110.37 34.8838 111.754 35.2007 111.894 34.7732C112.458 27.3125 111.493 18.803 105.056 14.0736C97.5526 8.56091 84.6357 6.58561 77.1067 13.0125C73.0241 16.4979 71.4723 21.6846 71.2472 26.9228L60.6427 34.4661H73.6552L74.1067 36.5612C73.1425 38.8416 71.8458 41.0758 70.8998 43.3517C70.7117 43.8032 70.1769 44.8904 70.5946 45.2626C71.0045 45.6276 74.5257 45.2294 75.3201 45.4174C75.9415 46.4285 76.3227 47.6927 76.4821 48.8716C76.583 49.6192 76.7847 51.7721 76.1204 52.21C75.6545 52.517 74.378 52.817 73.6981 53.1703C65.4235 57.4689 62.7305 70.2355 62.2055 78.7463C62.1385 79.8322 61.953 82.0645 62.0676 83.043C62.0897 83.2323 62.0838 83.3774 62.2693 83.4913H69.7514L73.3949 89.9936H8.9181V89.9949ZM19.885 61.8119C17.7412 62.0682 15.6332 63.7006 14.7275 65.6304C12.0359 71.3643 17.5278 77.3728 23.4615 75.1386C30.9684 72.3123 28.4505 60.7871 19.8857 61.8119H19.885Z" fill="#525252"/>
<path d="M146.916 89.9948V83.363H162.726C164.537 83.363 167.37 80.1177 168.363 78.7227C169.31 77.3909 171.652 73.2119 171.739 71.6921C171.807 70.4917 169.789 68.7883 169.043 67.8176C167.679 66.0447 167.438 64.815 166.547 62.9002C165.352 60.3315 164.884 60.7453 162.704 59.4577C161.007 58.4551 159.419 57.325 157.912 56.0537L157.779 51.8956C157.253 51.5741 156.648 50.4583 156.204 50.2189C155.81 50.0068 154.637 49.9853 154.519 49.8214C154.34 49.1968 154.612 48.511 154.364 47.8955C154.32 47.7843 153.165 46.2189 153.072 46.1636C152.742 45.9697 151.671 45.9905 151.526 45.7901C151.353 45.2364 151.58 44.6073 151.439 44.0575C151.403 43.9202 150.389 42.5331 150.241 42.3938C149.582 41.7751 148.427 42.1134 147.63 41.7523L122.713 0.00634766H167.02C171.412 0.00634766 175.963 4.44165 176.322 8.78586C176.632 32.3111 176.36 55.8657 176.46 79.4026C176.413 85.2257 172.341 89.6298 166.505 90L146.916 89.9948Z" fill="#525252"/>
<path d="M19.8848 61.8118C28.4496 60.7871 30.9675 72.3123 23.4606 75.1386C17.5269 77.3722 12.035 71.3643 14.7266 65.6304C15.6329 63.7006 17.7403 62.0682 19.8841 61.8118H19.8848Z" fill="white"/>
</svg>
