<svg width="141" height="46" viewBox="0 0 141 46" fill="none" xmlns="http://www.w3.org/2000/svg">
<g clip-path="url(#clip0_2441_49)">
<path d="M22.6732 0.249087C21.3994 0.230656 20.1194 0.291679 18.8605 0.412904C12.3658 1.2713 6.25234 5.15703 3.18247 10.9955C-1.96466 20.6672 -0.423154 34.2934 8.42492 41.3507C13.2828 45.2757 19.8433 46.2455 25.9107 45.5444C31.2353 45.0333 36.2937 42.2779 39.6002 38.0907C43.551 33.2221 44.938 26.6825 44.3661 20.5296C43.8599 13.4658 40.113 6.32013 33.6511 2.98482C30.3084 1.06817 26.4947 0.304375 22.6732 0.249087ZM22.1966 10.8153C24.8453 10.7898 27.5368 12.0029 29.0003 14.239C31.3865 17.6726 31.6034 22.1317 31.1038 26.1485C30.8212 28.8613 29.6445 31.5118 27.6198 33.3728C24.6091 36.0135 19.5442 35.8759 16.757 32.9469C13.4833 29.7688 13.2532 24.8052 13.6016 20.546C13.8711 16.4702 16.1292 12.0635 20.3889 11.0282C20.9805 10.8869 21.5854 10.8211 22.1966 10.8153Z" fill="#525252"/>
<path d="M107.309 4.68515C112.212 0.327625 119.259 -0.209693 125.504 0.524205C128.679 1.10739 131.92 2.05097 134.425 4.17404C137.462 6.56576 138.744 10.4843 139.013 14.2062C134.931 14.2062 130.849 14.1865 126.766 14.2258C126.339 9.33754 119.404 8.23669 116.216 11.0871C114.98 12.6991 116.163 14.7369 117.872 15.3529C124.157 18.0264 131.611 17.9543 137.113 22.4035C140.374 24.9787 141.176 29.4608 140.564 33.3662C140.203 37.3043 137.646 40.8296 134.201 42.7037C129.567 45.4951 123.966 45.9342 118.681 45.6721C114.125 45.4493 109.491 44.0601 106.007 41.0459C102.99 38.4117 101.484 34.3687 101.484 30.424C105.843 30.3323 110.201 30.3192 114.559 30.4306C114.941 32.3439 115.302 34.657 117.314 35.5547C120.837 37.265 126.891 37.0225 127.838 32.3374C127.378 31.5249 127.187 30.4437 126.273 29.9981C119.91 26.7218 112.042 26.8135 106.349 22.1677C101.419 17.6201 102.582 8.97714 107.309 4.68515Z" fill="#525252"/>
<path d="M44.457 1.31065C57.1046 1.25168 69.7523 1.27789 82.4064 1.29755C82.367 4.92117 82.3933 8.54479 82.3867 12.1684C78.2716 12.1815 74.1631 12.0898 70.0546 12.2208C69.864 23.0917 70.1467 33.9757 69.91 44.84C65.5517 44.8007 61.2 44.899 56.8483 44.7745C56.7102 33.9167 56.8614 23.0524 56.7694 12.1881C52.674 12.1356 48.5721 12.1619 44.4702 12.1684C44.5425 8.55134 44.5425 4.92772 44.457 1.31065Z" fill="#525252"/>
<path d="M85.6474 1.28423C90.032 1.25802 94.4297 1.31044 98.8143 1.25146C98.8932 15.7656 98.9524 30.2994 98.8406 44.8136C94.4297 44.8136 90.0254 44.9184 85.6211 44.7415C85.654 30.2536 85.608 15.7722 85.6474 1.28423Z" fill="#525252"/>
</g>
<defs>
<clipPath id="clip0_2441_49">
<rect width="141" height="46" fill="white"/>
</clipPath>
</defs>
</svg>
